<svg xmlns="http://www.w3.org/2000/svg" xmlns:xlink="http://www.w3.org/1999/xlink" version="1.1" x="0px" y="0px" viewBox="0 0 48 60" style="enable-background:new 0 0 48 48;" xml:space="preserve"><g><path d="M43,6H5C3.9,6,3,6.9,3,8v26c0,1.1,0.9,2,2,2h18v2.28c-0.59,0.35-1,0.99-1,1.72c0,1.1,0.9,2,2,2s2-0.9,2-2   c0-0.74-0.41-1.37-1-1.72V36h18c1.1,0,2-0.9,2-2V8C45,6.9,44.1,6,43,6z M5,34V10h38l0,24H5z"/></g><text x="0" y="63" fill="#000000" font-size="5px" font-weight="bold" font-family="'Helvetica Neue', Helvetica, Arial-Unicode, Arial, Sans-serif">Created by newstudiodesign10</text><text x="0" y="68" fill="#000000" font-size="5px" font-weight="bold" font-family="'Helvetica Neue', Helvetica, Arial-Unicode, Arial, Sans-serif">from the Noun Project</text></svg>