<svg xmlns="http://www.w3.org/2000/svg" viewBox="0 0 64 80" x="0px" y="0px"><title>Artboard 2</title><g data-name="Layer 25"><path d="M21,30V28h5.8a1,1,0,1,0,0-2H21V24h5.8a1,1,0,1,0,0-2H21V20h5.8A1.12,1.12,0,0,0,28,19a1.12,1.12,0,0,0-1.2-1H21V16h5.8A1.12,1.12,0,0,0,28,15a1.12,1.12,0,0,0-1.2-1H21.05A11,11,0,0,1,43,14H37.22A1.13,1.13,0,0,0,36,15a1.13,1.13,0,0,0,1.22,1H43v2H37.22A1.13,1.13,0,0,0,36,19a1.13,1.13,0,0,0,1.22,1H43v2H37.22A1.13,1.13,0,0,0,36,23a1.13,1.13,0,0,0,1.22,1H43v2H37.22a1,1,0,1,0,0,2H43v2a11,11,0,0,1-22,0Zm28-2.12a1,1,0,1,0-2,0,15,15,0,0,1-15,15h-.21A14.81,14.81,0,0,1,17,28.09v-.21a1,1,0,1,0-2,0v.21A16.8,16.8,0,0,0,31,44.84L31.05,58h-6a1,1,0,1,0,0,2h14a1,1,0,0,0,0-2h-6l0-13.18A17,17,0,0,0,49,27.88Z"/></g><text x="0" y="79" fill="#000000" font-size="5px" font-weight="bold" font-family="'Helvetica Neue', Helvetica, Arial-Unicode, Arial, Sans-serif">Created by Jejen Juliansyah Nur Agung</text><text x="0" y="84" fill="#000000" font-size="5px" font-weight="bold" font-family="'Helvetica Neue', Helvetica, Arial-Unicode, Arial, Sans-serif">from the Noun Project</text></svg>