<svg xmlns:x="http://ns.adobe.com/Extensibility/1.0/" xmlns:i="http://ns.adobe.com/AdobeIllustrator/10.0/" xmlns:graph="http://ns.adobe.com/Graphs/1.0/" xmlns="http://www.w3.org/2000/svg" xmlns:xlink="http://www.w3.org/1999/xlink" version="1.1" x="0px" y="0px" viewBox="0 0 100 125" style="enable-background:new 0 0 100 100;" xml:space="preserve"><switch><foreignObject requiredExtensions="http://ns.adobe.com/AdobeIllustrator/10.0/" x="0" y="0" width="1" height="1"/><g i:extraneous="self"><g><path d="M95.5,27.8H89v-7.2c0-0.6-0.3-1.2-0.7-1.5c-0.5-0.4-1.1-0.5-1.7-0.4L50,25.8l-36.6-7.2c-0.6-0.1-1.2,0-1.7,0.4     C11.3,19.4,11,20,11,20.6v7.2H4.5c-1.1,0-2,0.9-2,2v49.6c0,1.1,0.9,2,2,2h91c1.1,0,2-0.9,2-2V29.8C97.5,28.7,96.6,27.8,95.5,27.8     z M52,77V29.5L85,23v47.5L52,77z M15,23l33,6.5V77l-33-6.5V23z M6.5,31.8H11v40.4c0,1,0.7,1.8,1.6,2l16.9,3.3h-23V31.8z      M93.5,77.4h-23l16.9-3.3c0.9-0.2,1.6-1,1.6-2V31.8h4.5V77.4z"/><path d="M21.4,35.4l19.5,3.8c0.1,0,0.3,0,0.4,0c0.9,0,1.8-0.7,2-1.6c0.2-1.1-0.5-2.1-1.6-2.3l-19.5-3.8C21.1,31.3,20,32,19.8,33     C19.6,34.1,20.3,35.2,21.4,35.4z"/><path d="M41.6,45.1l-19.5-3.8c-1.1-0.2-2.1,0.5-2.3,1.6c-0.2,1.1,0.5,2.1,1.6,2.3L40.9,49c0.1,0,0.3,0,0.4,0c0.9,0,1.8-0.7,2-1.6     C43.4,46.3,42.7,45.3,41.6,45.1z"/><path d="M41.6,54.8L22.1,51c-1.1-0.2-2.1,0.5-2.3,1.6c-0.2,1.1,0.5,2.1,1.6,2.3l19.5,3.8c0.1,0,0.3,0,0.4,0c0.9,0,1.8-0.7,2-1.6     C43.4,56.1,42.7,55.1,41.6,54.8z"/><path d="M41.6,64.6l-19.5-3.8c-1.1-0.2-2.1,0.5-2.3,1.6c-0.2,1.1,0.5,2.1,1.6,2.3l19.5,3.8c0.1,0,0.3,0,0.4,0     c0.9,0,1.8-0.7,2-1.6C43.4,65.9,42.7,64.8,41.6,64.6z"/><path d="M77.9,31.5l-19.5,3.8c-1.1,0.2-1.8,1.3-1.6,2.3c0.2,1,1,1.6,2,1.6c0.1,0,0.3,0,0.4,0l19.5-3.8c1.1-0.2,1.8-1.3,1.6-2.3     C80,32,79,31.3,77.9,31.5z"/><path d="M77.9,41.2l-19.5,3.8c-1.1,0.2-1.8,1.3-1.6,2.3c0.2,1,1,1.6,2,1.6c0.1,0,0.3,0,0.4,0l19.5-3.8c1.1-0.2,1.8-1.3,1.6-2.3     C80,41.7,79,41,77.9,41.2z"/><path d="M77.9,51l-19.5,3.8c-1.1,0.2-1.8,1.3-1.6,2.3c0.2,1,1,1.6,2,1.6c0.1,0,0.3,0,0.4,0l19.5-3.8c1.1-0.2,1.8-1.3,1.6-2.3     C80,51.5,79,50.8,77.9,51z"/><path d="M77.9,60.8l-19.5,3.8c-1.1,0.2-1.8,1.3-1.6,2.3c0.2,1,1,1.6,2,1.6c0.1,0,0.3,0,0.4,0l19.5-3.8c1.1-0.2,1.8-1.3,1.6-2.3     C80,61.3,79,60.6,77.9,60.8z"/></g></g></switch><text x="0" y="115" fill="#000000" font-size="5px" font-weight="bold" font-family="'Helvetica Neue', Helvetica, Arial-Unicode, Arial, Sans-serif">Created by Alice Design</text><text x="0" y="120" fill="#000000" font-size="5px" font-weight="bold" font-family="'Helvetica Neue', Helvetica, Arial-Unicode, Arial, Sans-serif">from the Noun Project</text></svg>